HIERARCHY
ROOT pelvis
{
	OFFSET 0.000000 0.000000 0.000000
	CHANNELS 6 Xposition Yposition Zposition Xrotation Yrotation Zrotation
	JOINT l_hip
	{
		OFFSET 0.195211 -0.245059 -0.022011
		CHANNELS 3 Xrotation Yrotation Zrotation
		JOINT l_knee
		{
			OFFSET 0.083896 -0.996307 -0.018298
			CHANNELS 3 Xrotation Yrotation Zrotation
			JOINT l_ankle
			{
				OFFSET -0.031606 -1.048662 -0.119000
				CHANNELS 3 Xrotation Yrotation Zrotation
				JOINT l_foot
				{
					OFFSET 0.063841 -0.149483 0.312863
					CHANNELS 3 Xrotation Yrotation Zrotation
					End Site
					{
						OFFSET 0.000000 0.000000 0.000000
					}
				}
			}
		}
	}
	JOINT r_hip
	{
		OFFSET -0.188785 -0.243354 -0.013119
		CHANNELS 3 Xrotation Yrotation Zrotation
		JOINT r_knee
		{
			OFFSET -0.098896 -1.013926 -0.025127
			CHANNELS 3 Xrotation Yrotation Zrotation
			JOINT r_ankle
			{
				OFFSET 0.038376 -1.049454 -0.114596
				CHANNELS 3 Xrotation Yrotation Zrotation
				JOINT r_foot
				{
					OFFSET -0.060300 -0.126955 0.322518
					CHANNELS 3 Xrotation Yrotation Zrotation
					End Site
					{
						OFFSET 0.000000 0.000000 0.000000
					}
				}
			}
		}
	}
	JOINT spine1
	{
		OFFSET -0.006861 0.282462 -0.060688
		CHANNELS 3 Xrotation Yrotation Zrotation
		JOINT spine2
		{
			OFFSET 0.009796 0.349212 -0.004686
			CHANNELS 3 Xrotation Yrotation Zrotation
			JOINT spine3
			{
				OFFSET 0.005545 0.134239 0.076232
				CHANNELS 3 Xrotation Yrotation Zrotation
				JOINT neck
				{
					OFFSET -0.005369 0.569656 -0.136135
					CHANNELS 3 Xrotation Yrotation Zrotation
					JOINT head
					{
						OFFSET 0.009621 0.170484 0.137338
						CHANNELS 3 Xrotation Yrotation Zrotation
						End Site
						{
							OFFSET 0.000000 0.000000 0.000000
						}
					}
				}
				JOINT l_collar
				{
					OFFSET 0.205981 0.322192 -0.100872
					CHANNELS 3 Xrotation Yrotation Zrotation
					JOINT l_shoulder
					{
						OFFSET 0.233388 0.086823 -0.019950
						CHANNELS 3 Xrotation Yrotation Zrotation
						JOINT l_elbow
						{
							OFFSET 0.687295 -0.032736 -0.075278
							CHANNELS 3 Xrotation Yrotation Zrotation
							JOINT l_wrist
							{
								OFFSET 0.651109 0.024639 0.000120
								CHANNELS 3 Xrotation Yrotation Zrotation
								JOINT l_hand
								{
									OFFSET 0.217934 -0.026487 -0.036124
									CHANNELS 3 Xrotation Yrotation Zrotation
									End Site
									{
										OFFSET 0.000000 0.000000 0.000000
									}
								}
							}
						}
					}
				}
				JOINT r_collar
				{
					OFFSET -0.210726 0.316244 -0.114374
					CHANNELS 3 Xrotation Yrotation Zrotation
					JOINT r_shoulder
					{
						OFFSET -0.244017 0.089684 -0.026814
						CHANNELS 3 Xrotation Yrotation Zrotation
						JOINT r_elbow
						{
							OFFSET -0.672913 -0.035979 -0.055153
							CHANNELS 3 Xrotation Yrotation Zrotation
							JOINT r_wrist
							{
								OFFSET -0.670689 0.023586 -0.009661
								CHANNELS 3 Xrotation Yrotation Zrotation
								JOINT r_hand
								{
									OFFSET -0.219937 -0.019827 -0.028502
									CHANNELS 3 Xrotation Yrotation Zrotation
									End Site
									{
										OFFSET 0.000000 0.000000 0.000000
									}
								}
							}
						}
					}
				}
			}
		}
	}
}
MOTION
Frames: 8
Frame Time: 0.016667
0.000000 0.000000 0.000000 0.000000 0.000000 0.000000 -18.581656 -5.804057 3.487111 33.013612 -8.692265 0.056533 0.000000 0.000000 0.000000 0.000000 0.000000 0.000000 -5.298221 -6.275247 -8.739905 20.666503 -5.459222 0.504636 0.000000 0.000000 0.000000 0.000000 0.000000 0.000000 20.165391 10.475262 -2.480899 1.541515 3.056953 -4.828136 2.790457 6.233677 -2.608074 -1.215360 -31.517456 0.745264 -3.296289 -19.997917 14.082480 -2.125682 -1.356330 -12.196039 10.996753 -6.868105 -60.270089 16.188078 -45.223582 24.116366 0.000000 0.000000 0.000000 0.000000 0.000000 0.000000 -10.523717 40.546257 17.881663 -28.697110 53.189111 64.657844 73.264883 63.585120 -50.494356 0.000000 0.000000 0.000000 0.000000 0.000000 0.000000 
0.000000 0.000000 0.000000 0.000000 0.000000 0.000000 -18.933871 -5.899398 3.525563 33.719232 -9.161710 -0.103536 0.000000 0.000000 0.000000 0.000000 0.000000 0.000000 -5.215134 -6.428909 -8.845860 20.746626 -5.441064 0.451841 0.000000 0.000000 0.000000 0.000000 0.000000 0.000000 20.193959 10.327901 -2.326802 1.637267 2.910520 -4.768988 2.630288 6.109045 -2.587603 -1.724949 -31.261832 0.837942 -3.330991 -20.058619 13.745114 -2.057980 -1.075100 -12.641618 10.833674 -7.008555 -60.027062 15.991790 -45.798146 23.938208 0.000000 0.000000 0.000000 0.000000 0.000000 0.000000 -9.972203 39.509727 17.895539 -25.598364 51.949640 62.156082 70.749808 62.367955 -47.288236 0.000000 0.000000 0.000000 0.000000 0.000000 0.000000 
0.000000 0.000000 0.000000 0.000000 0.000000 0.000000 -19.264230 -6.031280 3.577687 34.474939 -9.736958 -0.219090 0.000000 0.000000 0.000000 0.000000 0.000000 0.000000 -5.124906 -6.597692 -8.963790 20.823980 -5.379642 0.409330 0.000000 0.000000 0.000000 0.000000 0.000000 0.000000 20.221901 10.206496 -2.185575 1.779875 2.789966 -4.685756 2.487164 5.982454 -2.549526 -2.258892 -30.972090 0.946308 -3.383216 -20.141729 13.394594 -1.963209 -0.784258 -13.109399 10.619386 -7.139894 -59.804844 15.723487 -46.383212 23.679522 0.000000 0.000000 0.000000 0.000000 0.000000 0.000000 -9.338889 38.424602 17.926868 -22.592241 50.475595 59.797717 67.945089 60.828012 -43.766613 0.000000 0.000000 0.000000 0.000000 0.000000 0.000000 
0.000000 0.000000 0.000000 0.000000 0.000000 0.000000 -19.553371 -6.199756 3.635136 35.263404 -10.385045 -0.262825 0.000000 0.000000 0.000000 0.000000 0.000000 0.000000 -5.023631 -6.775651 -9.086567 20.877434 -5.264206 0.370928 0.000000 0.000000 0.000000 0.000000 0.000000 0.000000 20.243935 10.115238 -2.064409 1.966258 2.697489 -4.579142 2.358168 5.854647 -2.497924 -2.817873 -30.652008 1.060054 -3.441538 -20.233701 13.047527 -1.840124 -0.484203 -13.587306 10.364187 -7.259034 -59.596226 15.429512 -46.957146 23.363293 0.000000 0.000000 0.000000 0.000000 0.000000 0.000000 -8.640368 37.298533 17.972484 -19.776094 48.794930 57.658086 65.039771 59.000241 -40.166098 0.000000 0.000000 0.000000 0.000000 0.000000 0.000000 
0.000000 0.000000 0.000000 0.000000 0.000000 0.000000 -19.786261 -6.397587 3.696864 36.072084 -11.039713 -0.211248 0.000000 0.000000 0.000000 0.000000 0.000000 0.000000 -4.910309 -6.952172 -9.200303 20.890015 -5.083939 0.328535 0.000000 0.000000 0.000000 0.000000 0.000000 0.000000 20.252500 10.055115 -1.967961 2.192516 2.632885 -4.450021 2.237155 5.725717 -2.438225 -3.417089 -30.304999 1.169567 -3.478384 -20.318971 12.721924 -1.683454 -0.162786 -14.072205 10.076160 -7.353926 -59.392048 15.149604 -47.508830 23.018004 0.000000 0.000000 0.000000 0.000000 0.000000 0.000000 -7.891849 36.128918 18.041130 -17.212223 46.936778 55.781051 62.175004 56.949209 -36.675783 0.000000 0.000000 0.000000 0.000000 0.000000 0.000000 
0.000000 0.000000 0.000000 0.000000 0.000000 0.000000 -19.955754 -6.610494 3.768820 36.892615 -11.608195 -0.047186 0.000000 0.000000 0.000000 0.000000 0.000000 0.000000 -4.791339 -7.113788 -9.290909 20.854128 -4.830097 0.275369 0.000000 0.000000 0.000000 0.000000 0.000000 0.000000 20.237349 10.025647 -1.896096 2.448854 2.594249 -4.300453 2.121905 5.594257 -2.376019 -4.075479 -29.940627 1.263385 -3.457164 -20.377754 12.440429 -1.484671 0.194679 -14.569087 9.763070 -7.404769 -59.182592 14.920333 -48.037676 22.675993 0.000000 0.000000 0.000000 0.000000 0.000000 0.000000 -7.106793 34.903518 18.143436 -14.932773 44.922224 54.184993 59.448019 54.776304 -33.442767 0.000000 0.000000 0.000000 0.000000 0.000000 0.000000 
0.000000 0.000000 0.000000 0.000000 0.000000 0.000000 -20.066973 -6.811805 3.869599 37.710912 -11.983681 0.232433 0.000000 0.000000 0.000000 0.000000 0.000000 0.000000 -4.686674 -7.246636 -9.353158 20.778110 -4.509931 0.210757 0.000000 0.000000 0.000000 0.000000 0.000000 0.000000 20.188883 10.020816 -1.840904 2.707842 2.578162 -4.135304 2.019270 5.454607 -2.315435 -4.774771 -29.570122 1.342639 -3.377406 -20.389060 12.224242 -1.244643 0.586471 -15.077529 9.451115 -7.392567 -58.961673 14.784158 -48.540807 22.377382 0.000000 0.000000 0.000000 0.000000 0.000000 0.000000 -6.303797 33.604947 18.258015 -12.927492 42.779624 52.856689 57.032333 52.635003 -30.665551 0.000000 0.000000 0.000000 0.000000 0.000000 0.000000 
0.000000 0.000000 0.000000 0.000000 0.000000 0.000000 -20.113644 -7.017759 3.983797 38.511612 -12.130794 0.631238 0.000000 0.000000 0.000000 0.000000 0.000000 0.000000 -4.595944 -7.341305 -9.385518 20.654610 -4.102988 0.136976 0.000000 0.000000 0.000000 0.000000 0.000000 0.000000 20.092496 10.042632 -1.791053 2.979179 2.568794 -3.962816 1.930184 5.314669 -2.261790 -5.613994 -29.233618 1.345719 -3.109849 -20.322245 12.113540 -0.929435 1.035147 -15.644156 9.096810 -7.270937 -58.712354 14.706986 -49.059071 22.104920 0.000000 0.000000 0.000000 0.000000 0.000000 0.000000 -5.476632 32.220024 18.460105 -11.197713 40.441831 51.742981 54.715190 50.693727 -28.213452 0.000000 0.000000 0.000000 0.000000 0.000000 0.000000 
